# xmcd
#
# Track frame offsets: 
#        150
#        8212
#        19428
#        31562
#        40189
#        56692
#        70192
#        81680
#        96571
#
# Disc length: 1426 seconds
#
# Revision: 0
# Processed by: cddbd v1.5.2PL0 Copyright (c) Steve Scherf et al.
# Submitted via: ExactAudioCopy v0.95b4
#
DISCID=75059009
DTITLE=Beda Zimmermann - Dani Brantschen - KBW-Diplomfeier 2003
DYEAR=2003
DGENRE=Mundart
TTITLE0=Clown
TTITLE1=Chum bisch uf dr Wält
TTITLE2=Schueltango
TTITLE3=Nochpuur
TTITLE4=Chum doch
TTITLE5=Plaanet
TTITLE6=Im Früälig
TTITLE7=Endlich ällai entscheidä
TTITLE8=Hüt bisch det, mourä dou
EXTD=
EXTT0=
EXTT1=
EXTT2=
EXTT3=
EXTT4=
EXTT5=
EXTT6=
EXTT7=
EXTT8=
PLAYORDER=
